<svg version="1.1" id="chart2" xmlns="http://www.w3.org/2000/svg" xmlns:xlink="http://www.w3.org/1999/xlink" x="0px" y="0px" viewBox="0 0 433.2 151.5" xml:space="preserve">
	<style type="text/css">
		#chart2 .st0{fill:none;stroke:#231815;stroke-width:3;stroke-linecap:round;stroke-linejoin:round;}
		#chart2 .st1{fill:none;stroke:#231815;stroke-width:3;stroke-linecap:round;stroke-linejoin:round;stroke-dasharray:0.5398,10.7957;}
		#chart2 .st2{fill:#231815;}
		#chart2 .st4{font-size:15px;}
		#chart2 .st6{fill:#FFFFFF;stroke:#231815;stroke-width:2;stroke-miterlimit:10;}
		#chart2 .st8{fill:none;stroke:#231815;stroke-width:3;stroke-linecap:round;stroke-linejoin:round;stroke-dasharray:0.5778,11.5558;}
		#chart2 .st9{fill:none;stroke:#231815;stroke-width:3;stroke-linecap:round;stroke-linejoin:round;stroke-dasharray:0.5149,10.2984;}
	</style>
	<line class="st0" x1="276.5" y1="24.5" x2="276.2" y2="24.5"/>
	<line class="st1" x1="265.4" y1="24.5" x2="168.8" y2="24.5"/>
	<line class="st0" x1="163.4" y1="24.5" x2="163.1" y2="24.5"/>
	<text transform="matrix(1 0 0 1 14.3589 29.7908)" class="st2 bold st4 tracking-1">ホワイトワイヤー</text>
	<rect x="295.4" y="7.3" class="st6" width="127" height="35"/>
	<text transform="matrix(1 0 0 1 308.0479 30.0774)" class="st2 bold ">+33,000円/片顎</text>
	<line class="st0" x1="276.5" y1="73.2" x2="276.2" y2="73.2"/>
	<line class="st8" x1="264.6" y1="73.2" x2="64.1" y2="73.2"/>
	<line class="st0" x1="58.4" y1="73.2" x2="58.1" y2="73.2"/>
	<text transform="matrix(1 0 0 1 14.3589 79.1826)" class="st2 bold st4 tracking-1">舌側</text>
	<rect x="295.4" y="55.7" class="st6" width="127" height="35"/>
	<text transform="matrix(1 0 0 1 304.2909 78.469)" class="st2 bold ">+165,000円/片顎</text>
	<line class="st0" x1="276.5" y1="121.6" x2="276.2" y2="121.6"/>
	<line class="st9" x1="265.9" y1="121.6" x2="260.2" y2="121.6"/>
	<line class="st0" x1="255.1" y1="121.6" x2="254.8" y2="121.6"/>
	<text transform="matrix(1 0 0 1 14.3589 127.5732)" class="st2 bold st4 tracking-1">歯科矯正用アンカースクリュー</text>
	<rect x="295.4" y="104.1" class="st6" width="127" height="35"/>
	<text transform="matrix(1 0 0 1 310.8234 126.8596)" class="st2 bold ">+16,500円/1本</text>
</svg>
